:FULLY-SPECIFIED
:FORCE-ALL-JOINTS-BE-3DOF
:DEGREES
102
root -2.8402 16.5127 -36.1883 3.20018 0.177574 -2.31441
lfemur -21.1805 5.88407 -9.14844
ltibia 44.4399 0 0
lfoot -21.6913 0.148284 0
ltoes -8.29475 0 0
rfemur -21.7013 -5.7539 13.7992
rtibia 47.1306 0 0
rfoot -25.57 1.49684 0
rtoes -7.0007 0 0
lowerback 7.54213 1.96363 -1.67332
upperback -3.66252 2.54519 1.22687
thorax -8.23474 1.37222 1.86374
lowerneck -2.58474 -3.81003 -6.52264
upperneck 6.00845 -5.15403 5.93473
head 2.77295 -2.55085 2.93726
lclavicle -1.70636e-015 8.41392e-015 0
lhumerus -26.8722 -4.16705 89.7768
lradius 24.9874 0 0
lwrist -30.3144 0 0
lhand -28.5863 30.1744 0
lfingers 7.12502 0 0
lthumb -1.95212 60.1452 0
rclavicle -1.70636e-015 8.41392e-015 0
rhumerus -32.4687 2.91193 -80.2676
rradius 30.631 0 0
rwrist 2.59195 0 0
rhand -19.9311 -27.6367 0
rfingers 7.12502 0 0
rthumb 6.40637 -57.5198 0
103
root -2.83708 16.5117 -36.1841 3.24955 0.176669 -2.32387
lfemur -21.2353 5.88346 -9.1497
ltibia 44.4646 0 0
lfoot -21.7138 0.17445 0
ltoes -8.35235 0 0
rfemur -21.7513 -5.76786 13.8029
rtibia 47.1424 0 0
rfoot -25.5845 1.50588 0
rtoes -7.0201 0 0
lowerback 7.46666 1.96474 -1.68666
upperback -3.68689 2.54622 1.22813
thorax -8.21783 1.37374 1.87428
lowerneck -2.59838 -3.81159 -6.51193
upperneck 6.06142 -5.15752 5.9306
head 2.79299 -2.55234 2.93362
lclavicle -1.09698e-015 8.70489e-015 0
lhumerus -26.8782 -4.14482 89.7754
lradius 24.9859 0 0
lwrist -30.3207 0 0
lhand -28.5731 30.1714 0
lfingers 7.12502 0 0
lthumb -1.93945 60.1423 0
rclavicle -1.09698e-015 8.70489e-015 0
rhumerus -32.4714 2.87466 -80.2553
rradius 30.6145 0 0
rwrist 2.60657 0 0
rhand -19.914 -27.6258 0
rfingers 7.12502 0 0
rthumb 6.42282 -57.5083 0
104
root -2.83395 16.5107 -36.1799 3.29468 0.176794 -2.33339
lfemur -21.2886 5.88317 -9.14998
ltibia 44.4923 0 0
lfoot -21.7364 0.19852 0
ltoes -8.40613 0 0
rfemur -21.7988 -5.78259 13.807
rtibia 47.1567 0 0
rfoot -25.5996 1.51504 0
rtoes -7.03954 0 0
lowerback 7.39872 1.96566 -1.69925
upperback -3.70921 2.547 1.22931
thorax -8.20305 1.37508 1.88416
lowerneck -2.60959 -3.81297 -6.50279
upperneck 6.10796 -5.16065 5.92723
head 2.81047 -2.55368 2.93056
lclavicle -6.60513e-016 8.84498e-015 0
lhumerus -26.8824 -4.1197 89.7706
lradius 24.9838 0 0
lwrist -30.3288 0 0
lhand -28.5612 30.1707 0
lfingers 7.12502 0 0
lthumb -1.92789 60.1417 0
rclavicle -6.60513e-016 8.84498e-015 0
rhumerus -32.4748 2.84037 -80.2452
rradius 30.5999 0 0
rwrist 2.62002 0 0
rhand -19.8982 -27.6151 0
rfingers 7.12502 0 0
rthumb 6.43813 -57.4972 0
105
root -2.83083 16.5096 -36.1758 3.33515 0.178177 -2.34295
lfemur -21.3402 5.88338 -9.14921
ltibia 44.5237 0 0
lfoot -21.7594 0.220018 0
ltoes -8.45545 0 0
rfemur -21.8435 -5.79826 13.8115
rtibia 47.174 0 0
rfoot -25.6155 1.5242 0
rtoes -7.05935 0 0
lowerback 7.33893 1.96633 -1.7109
upperback -3.7293 2.54744 1.2304
thorax -8.19055 1.3762 1.89329
lowerneck -2.61787 -3.81413 -6.49541
upperneck 6.14735 -5.16335 5.92463
head 2.82506 -2.55487 2.92814
lclavicle -4.19191e-016 8.81542e-015 0
lhumerus -26.8847 -4.09144 89.7618
lradius 24.9813 0 0
lwrist -30.3385 0 0
lhand -28.5505 30.1724 0
lfingers 7.12502 0 0
lthumb -1.91761 60.1435 0
rclavicle -4.19191e-016 8.81542e-015 0
rhumerus -32.4788 2.80964 -80.2374
rradius 30.5874 0 0
rwrist 2.63203 0 0
rhand -19.8835 -27.6049 0
rfingers 7.12502 0 0
rthumb 6.45225 -57.4866 0
106
root -2.8277 16.5086 -36.1716 3.37051 0.181047 -2.35253
lfemur -21.3903 5.88428 -9.14733
ltibia 44.5593 0 0
lfoot -21.783 0.238469 0
ltoes -8.49969 0 0
rfemur -21.8851 -5.815 13.8163
rtibia 47.1946 0 0
rfoot -25.6325 1.53325 0
rtoes -7.07983 0 0
lowerback 7.2879 1.96665 -1.72144
upperback -3.74694 2.54747 1.23139
thorax -8.18044 1.37702 1.90154
lowerneck -2.62272 -3.81502 -6.49001
upperneck 6.17888 -5.16558 5.92283
head 2.83645 -2.55589 2.92642
lclavicle -3.9524e-016 8.59744e-015 0
lhumerus -26.885 -4.05976 89.7487
lradius 24.9782 0 0
lwrist -30.3501 0 0
lhand -28.5414 30.177 0
lfingers 7.12502 0 0
lthumb -1.90879 60.1482 0
rclavicle -3.9524e-016 8.59744e-015 0
rhumerus -32.4836 2.78304 -80.2323
rradius 30.5776 0 0
rwrist 2.64235 0 0
rhand -19.8702 -27.5955 0
rfingers 7.12502 0 0
rthumb 6.46513 -57.4768 0
107
root -2.82712 16.5066 -36.1719 3.40087 0.185128 -2.3624
lfemur -21.4385 5.88492 -9.14408
ltibia 44.5982 0 0
lfoot -21.8066 0.255108 0
ltoes -8.54051 0 0
rfemur -21.9238 -5.83281 13.8218
rtibia 47.2179 0 0
rfoot -25.65 1.54297 0
rtoes -7.09973 0 0
lowerback 7.24645 1.96694 -1.73176
upperback -3.76218 2.54737 1.2323
thorax -8.1733 1.37775 1.90936
lowerneck -2.62487 -3.81578 -6.4865
upperneck 6.20241 -5.16748 5.92223
head 2.84473 -2.55678 2.9255
lclavicle -6.30291e-016 8.15749e-015 0
lhumerus -26.8822 -4.02454 89.7311
lradius 24.9749 0 0
lwrist -30.3637 0 0
lhand -28.5334 30.1847 0
lfingers 7.12502 0 0
lthumb -1.90109 60.156 0
rclavicle -6.30291e-016 8.15749e-015 0
rhumerus -32.4893 2.75931 -80.2303
rradius 30.5695 0 0
rwrist 2.65143 0 0
rhand -19.8579 -27.5861 0
rfingers 7.12502 0 0
rthumb 6.47696 -57.4671 0
108
root -2.82654 16.5046 -36.1722 3.42684 0.189923 -2.37282
lfemur -21.4847 5.88431 -9.13932
ltibia 44.6389 0 0
lfoot -21.8295 0.271498 0
ltoes -8.57997 0 0
rfemur -21.96 -5.85151 13.8283
rtibia 47.2428 0 0
rfoot -25.6673 1.55414 0
rtoes -7.11765 0 0
lowerback 7.21447 1.96753 -1.7428
upperback -3.77527 2.54747 1.23315
thorax -8.16942 1.3786 1.91723
lowerneck -2.62549 -3.81657 -6.48457
upperneck 6.21867 -5.16926 5.92312
head 2.85039 -2.55762 2.92539
lclavicle -1.13098e-015 7.49123e-015 0
lhumerus -26.8757 -3.98601 89.7094
lradius 24.9719 0 0
lwrist -30.3795 0 0
lhand -28.5261 30.1955 0
lfingers 7.12502 0 0
lthumb -1.89404 60.1669 0
rclavicle -1.13098e-015 7.49123e-015 0
rhumerus -32.496 2.73674 -80.2316
rradius 30.5619 0 0
rwrist 2.65994 0 0
rhand -19.8465 -27.5759 0
rfingers 7.12502 0 0
rthumb 6.48797 -57.4566 0
109
root -2.82596 16.5025 -36.1725 3.44876 0.195332 -2.38371
lfemur -21.5291 5.8826 -9.13319
ltibia 44.6814 0 0
lfoot -21.8517 0.287646 0
ltoes -8.61807 0 0
rfemur -21.9938 -5.87097 13.8356
rtibia 47.2693 0 0
rfoot -25.6844 1.56662 0
rtoes -7.13372 0 0
lowerback 7.19123 1.96841 -1.75445
upperback -3.78637 2.54776 1.23394
thorax -8.16851 1.37956 1.92511
lowerneck -2.62475 -3.81736 -6.48409
upperneck 6.22828 -5.1709 5.92536
head 2.85366 -2.5584 2.92604
lclavicle -1.86703e-015 6.62375e-015 0
lhumerus -26.8659 -3.9444 89.6839
lradius 24.969 0 0
lwrist -30.3972 0 0
lhand -28.5194 30.2091 0
lfingers 7.12502 0 0
lthumb -1.8876 60.1805 0
rclavicle -1.86703e-015 6.62375e-015 0
rhumerus -32.5037 2.71526 -80.2358
rradius 30.5548 0 0
rwrist 2.66796 0 0
rhand -19.836 -27.565 0
rfingers 7.12502 0 0
rthumb 6.49812 -57.4454 0
110
root -2.82538 16.5005 -36.1728 3.46693 0.201255 -2.39501
lfemur -21.5716 5.87991 -9.12583
ltibia 44.7254 0 0
lfoot -21.8734 0.303564 0
ltoes -8.65482 0 0
rfemur -22.0255 -5.89109 13.8438
rtibia 47.2971 0 0
rfoot -25.7014 1.58025 0
rtoes -7.14807 0 0
lowerback 7.176 1.96952 -1.76658
upperback -3.79563 2.54822 1.23467
thorax -8.17031 1.38062 1.93296
lowerneck -2.62283 -3.81817 -6.48492
upperneck 6.23187 -5.1724 5.9288
head 2.85477 -2.55911 2.92735
lclavicle -2.80818e-015 5.58013e-015 0
lhumerus -26.8531 -3.89997 89.6549
lradius 24.9661 0 0
lwrist -30.4167 0 0
lhand -28.5134 30.225 0
lfingers 7.12502 0 0
lthumb -1.88173 60.1965 0
rclavicle -2.80818e-015 5.58013e-015 0
rhumerus -32.5121 2.69478 -80.2425
rradius 30.5482 0 0
rwrist 2.67556 0 0
rhand -19.8264 -27.5534 0
rfingers 7.12502 0 0
rthumb 6.50741 -57.4334 0
111
root -2.8248 16.4985 -36.1731 3.48168 0.207593 -2.40666
lfemur -21.6124 5.87639 -9.11735
ltibia 44.7707 0 0
lfoot -21.8945 0.319261 0
ltoes -8.69023 0 0
rfemur -22.0551 -5.91174 13.8526
rtibia 47.3262 0 0
rfoot -25.7183 1.5949 0
rtoes -7.16082 0 0
lowerback 7.16804 1.97085 -1.77906
upperback -3.80318 2.54884 1.23535
thorax -8.17454 1.38176 1.94073
lowerneck -2.61992 -3.81897 -6.48692
upperneck 6.23003 -5.17377 5.93333
head 2.85395 -2.55977 2.92926
lclavicle -3.92415e-015 4.38544e-015 0
lhumerus -26.8377 -3.85298 89.6229
lradius 24.9631 0 0
lwrist -30.4379 0 0
lhand -28.5079 30.243 0
lfingers 7.12502 0 0
lthumb -1.8764 60.2145 0
rclavicle -3.92415e-015 4.38544e-015 0
rhumerus -32.5212 2.67522 -80.2514
rradius 30.542 0 0
rwrist 2.68281 0 0
rhand -19.8177 -27.541 0
rfingers 7.12502 0 0
rthumb 6.51582 -57.4208 0
112
root -2.82423 16.4965 -36.1733 3.49334 0.214245 -2.41859
lfemur -21.6515 5.87217 -9.1079
ltibia 44.8172 0 0
lfoot -21.915 0.334747 0
ltoes -8.72429 0 0
rfemur -22.083 -5.93281 13.8621
rtibia 47.3565 0 0
rfoot -25.7351 1.61042 0
rtoes -7.1721 0 0
lowerback 7.16662 1.97238 -1.79178
upperback -3.80919 2.5496 1.23598
thorax -8.18091 1.38297 1.94838
lowerneck -2.61619 -3.81976 -6.48995
upperneck 6.22339 -5.17501 5.93878
head 2.85142 -2.56036 2.9317
lclavicle -5.18467e-015 3.06476e-015 0
lhumerus -26.8203 -3.80367 89.5882
lradius 24.96 0 0
lwrist -30.4607 0 0
lhand -28.5029 30.2627 0
lfingers 7.12502 0 0
lthumb -1.87158 60.2343 0
rclavicle -5.18467e-015 3.06476e-015 0
rhumerus -32.531 2.6565 -80.2621
rradius 30.5363 0 0
rwrist 2.68978 0 0
rhand -19.8099 -27.528 0
rfingers 7.12502 0 0
rthumb 6.52333 -57.4076 0
113
root -2.82365 16.4944 -36.1736 3.5022 0.221111 -2.43073
lfemur -21.6892 5.86738 -9.09759
ltibia 44.8647 0 0
lfoot -21.9351 0.350032 0
ltoes -8.75701 0 0
rfemur -22.1092 -5.95419 13.872
rtibia 47.3877 0 0
rfoot -25.7517 1.62666 0
rtoes -7.18204 0 0
lowerback 7.17099 1.97405 -1.80462
upperback -3.81379 2.55048 1.23656
thorax -8.18916 1.38423 1.95586
lowerneck -2.61182 -3.82053 -6.49387
upperneck 6.21257 -5.17612 5.94503
head 2.84742 -2.56089 2.93457
lclavicle -6.55948e-015 1.64318e-015 0
lhumerus -26.8011 -3.7523 89.5512
lradius 24.9566 0 0
lwrist -30.4848 0 0
lhand -28.4984 30.2838 0
lfingers 7.12502 0 0
lthumb -1.86723 60.2554 0
rclavicle -6.55948e-015 1.64318e-015 0
rhumerus -32.5411 2.63855 -80.2743
rradius 30.5309 0 0
rwrist 2.69654 0 0
rhand -19.8031 -27.5144 0
rfingers 7.12502 0 0
rthumb 6.52993 -57.3938 0
